<svg width="36" height="37" viewBox="0 0 36 37" fill="none" xmlns="http://www.w3.org/2000/svg">
<path d="M17.8697 35.1078C27.0685 35.1078 34.5256 27.6508 34.5256 18.452C34.5256 9.25322 27.0685 1.79614 17.8697 1.79614C8.67094 1.79614 1.21387 9.25322 1.21387 18.452C1.21387 27.6508 8.67094 35.1078 17.8697 35.1078Z" fill="#FCE5AC"/>
<path d="M17.4102 3.06753C17.4047 3.44507 16.4664 3.68658 15.3615 3.78929C14.2567 3.892 13.3351 3.81982 13.2379 3.45617C13.1408 3.09252 13.9847 2.5512 15.1894 2.43461C16.3942 2.31802 17.413 2.69 17.4102 3.06753ZM33.2416 17.1945C33.2388 17.0834 33.2444 16.9724 33.2638 16.8586C33.6025 14.8515 33.7635 12.9722 31.5094 11.823C31.2623 11.6953 30.9903 11.5925 30.8015 11.3871C30.4545 11.0124 30.485 10.4405 30.3962 9.93807C30.1269 8.40018 28.3864 7.29812 26.8818 7.71451C26.3877 7.85054 25.8714 8.12258 25.3967 7.93659C25.0136 7.78669 24.7971 7.38973 24.5805 7.03995C23.9671 6.04615 23.026 5.16339 21.8684 5.00239C20.7108 4.83861 19.395 5.64086 19.3229 6.80677C19.2923 7.31477 19.3784 7.91438 19.767 8.24473C21.3993 9.63549 22.4097 8.61115 23.1676 9.33013C24.0476 10.1657 22.221 10.3906 22.5236 12.5142C22.6762 13.5746 23.7283 14.5684 24.7971 14.4796C25.2718 14.4379 25.9935 14.4129 26.2572 14.8099C26.4654 15.1208 26.4127 15.4178 26.4127 15.9286C26.4127 17.1889 26.5515 18.1799 27.7785 18.4659C27.9367 18.502 28.1088 18.5214 28.2559 18.4575C28.5807 18.316 28.578 17.8801 28.5557 17.5248C28.4586 15.9647 27.3593 15.6482 27.1594 14.7905C26.9068 13.6967 28.4003 12.2171 29.6217 12.6308C30.5933 12.9611 29.8022 14.0882 30.5128 15.3901C30.9819 16.2534 31.9036 16.6504 32.245 17.3555C32.5865 18.0606 32.27 18.5491 32.4366 18.9961C32.6947 19.6956 33.1056 19.7067 33.336 19.4597C33.5886 19.1904 33.5053 18.638 33.4442 18.316C33.3776 17.9412 33.2527 17.5748 33.2416 17.1945ZM6.83375 29.0118C6.86428 28.9674 7.10857 28.9035 7.39172 29.17C7.67487 29.4337 8.51044 30.2221 8.84355 30.5247C9.17667 30.8273 8.85188 31.0827 8.57428 31.0327C7.24182 30.7995 6.51451 29.4754 6.83375 29.0118ZM11.775 32.4484C11.7889 32.3957 11.9943 32.2514 12.3524 32.3957C12.7105 32.5401 13.7737 32.9814 14.1929 33.1452C14.612 33.309 14.3983 33.6615 14.1235 33.7171C12.791 33.9725 11.6417 32.9953 11.775 32.4484ZM13.5127 31.4546C13.6793 31.5851 13.8486 31.7905 13.7709 31.9849C13.6987 32.1625 13.4711 32.2097 13.2796 32.2153C12.6466 32.2347 12.0137 32.0737 11.4613 31.7711C11.0727 31.5574 10.0539 30.8994 10.1982 30.347C10.4036 29.5642 13.0852 31.1243 13.5127 31.4546ZM27.2288 30.1111C27.1678 30.075 27.0623 29.7724 27.3898 29.3976C27.7174 29.0229 28.689 27.9181 29.0582 27.4767C29.4274 27.0353 29.7966 27.4267 29.7577 27.7793C29.5634 29.4754 27.8729 30.4803 27.2288 30.1111ZM30.3657 26.8326C30.3102 26.8215 30.1519 26.6161 30.3074 26.2441C30.4628 25.8722 30.9264 24.7757 31.0985 24.3454C31.2706 23.9123 31.6537 24.1177 31.712 24.4009C31.9952 25.75 30.9542 26.952 30.3657 26.8326ZM24.1197 4.38335C24.1086 4.43887 23.9004 4.60265 23.5312 4.4583C23.162 4.31395 22.0738 3.87534 21.6436 3.71434C21.2133 3.55333 21.4243 3.16469 21.7046 3.09807C23.0593 2.77883 24.2474 3.78929 24.1197 4.38335ZM15.7807 4.98018C13.1435 4.49994 12.1997 6.07947 11.3919 6.42369C10.7479 6.69573 10.3037 6.22104 9.30992 6.82898C7.93858 7.66455 8.45769 8.26971 8.33277 8.97758C8.20508 9.68546 7.44724 9.98804 6.89204 10.0408C6.23414 10.1046 6.18139 9.70489 6.49785 9.22464C6.67274 8.96093 6.85873 8.79714 6.94756 8.48624C7.05027 8.12536 6.99475 7.73672 7.19462 7.40361C7.50831 6.88172 8.24117 6.80955 8.69365 6.40425C9.02121 6.11 9.17945 5.65752 9.52922 5.38825C9.87899 5.11898 10.3342 5.02182 10.7701 4.94409C11.6584 4.78586 12.4079 4.08632 12.0054 4.06411C11.6001 4.0419 10.9255 3.91143 10.3592 4.32783C9.72909 4.78864 8.88242 4.93299 8.21341 5.3133C7.46389 5.74357 7.06971 6.67908 6.84208 6.93169C6.61445 7.1843 5.88159 7.20929 5.37636 7.73117C4.32149 8.81102 2.56152 12.7335 2.56152 14.202C2.56152 15.5705 3.16946 16.9085 4.52691 17.2805C4.73234 17.336 4.95164 17.3999 5.08488 17.5664C5.39024 17.9468 4.62685 19.0905 4.51026 19.5513C4.21323 20.7449 4.53802 21.6638 5.06545 22.3217C6.20638 23.7402 7.34453 23.5487 8.48823 22.8464C8.76583 22.6742 9.00456 22.4327 9.31269 22.3189C9.96227 22.0774 9.97893 22.4938 10.0428 22.9796C10.3426 25.217 11.2725 25.7944 11.9249 26.047C13.2823 26.5717 14.9507 26.072 15.8335 24.9144C16.7162 23.7569 16.8134 22.0274 16.0167 20.8088C14.8008 18.9489 12.3996 18.8462 11.9138 17.8052C11.3669 16.6337 12.8798 16.4699 13.5405 15.4539C14.129 14.5517 14.2511 13.3109 13.6904 12.3782C13.4128 11.9173 12.952 11.4565 13.0686 10.9319C13.1991 10.3461 14.8674 9.42729 16.1083 8.36132C16.991 7.60625 19.0591 5.57701 15.7807 4.98018ZM7.32509 14.2492C7.23071 14.4296 7.08914 14.61 6.88649 14.6406C6.69495 14.6683 6.51173 14.5462 6.39237 14.3935C6.2036 14.1464 6.14808 13.7994 6.26745 13.5135C6.40902 13.1693 6.89204 12.8945 7.2668 13.0555C7.46945 13.1415 7.53052 13.347 7.51941 13.5718C7.50553 13.8189 7.40837 14.0882 7.32509 14.2492ZM11.6279 15.0653C11.589 15.2846 11.5196 15.4956 11.4696 15.6399C11.3336 16.0424 11.1365 16.4644 10.7562 16.6504C10.5896 16.7337 10.4036 16.7614 10.2204 16.7919C9.84013 16.8502 9.36544 16.8697 9.16834 16.5393C9.09617 16.42 9.07951 16.2756 9.06563 16.1368C9.00178 15.5372 8.97125 14.8404 9.41263 14.4324C9.72909 14.1381 10.0844 14.1742 10.4786 14.1714C10.7007 14.1714 11.2364 14.0993 11.4252 14.2214C11.6778 14.3852 11.6861 14.735 11.6279 15.0653Z" fill="#F1C688"/>
</svg>
