<svg width="36" height="37" viewBox="0 0 36 37" fill="none" xmlns="http://www.w3.org/2000/svg">
<g clip-path="url(#clip0_1462_3352)">
<path d="M10.7482 12.5282C8.05276 15.9926 8.09995 22.147 11.5449 25.1978C15.4563 28.6594 20.961 28.6233 24.4227 25.4393C28.5728 21.6195 28.334 15.2626 24.6642 11.6621C20.9749 8.04225 14.382 7.85348 10.7482 12.5282Z" fill="#FCC11A"/>
<path d="M15.0765 11.3403C14.0105 10.8684 12.8446 12.1537 12.3366 13.0309C11.8286 13.9109 11.3567 15.6348 12.4393 16.0762C13.5219 16.5148 14.2992 15.7708 15.0792 14.4855C15.8537 13.2002 16.2951 11.8817 15.0765 11.3403Z" fill="#FEE269"/>
<path d="M17.852 6.50994C17.5938 6.99296 17.6799 7.36494 18.1935 7.48709C18.707 7.60923 21.9022 8.12834 22.1714 8.14499C22.5628 8.16997 22.7072 7.87572 22.66 7.53428C22.61 7.19283 21.83 2.40983 21.7578 1.97122C21.6856 1.53262 21.222 1.09402 20.7807 1.67975C20.3393 2.26548 18.0463 6.14629 17.852 6.50994ZM26.1244 9.83001C25.622 9.98546 25.6358 10.2936 25.9051 10.685C26.1744 11.0764 28.0287 13.9051 28.1981 14.1022C28.3702 14.2965 28.6617 14.3465 28.9059 14.0523C29.1502 13.7608 32.1982 9.48579 32.4203 9.21929C32.7868 8.78069 32.5675 8.3171 32.0067 8.46145C31.5792 8.57527 26.4409 9.73285 26.1244 9.83001ZM29.9553 18.0552C29.5944 17.8498 29.1252 17.9081 29.0031 18.3717C28.881 18.8353 28.3452 22.2025 28.2952 22.4968C28.2453 22.791 28.4673 23.0825 28.831 23.0103C29.1946 22.9382 34.2303 22.1914 34.5662 22.1081C35.1519 21.961 35.3462 21.3753 34.7383 20.9367C34.3441 20.6508 30.2967 18.2495 29.9553 18.0552ZM25.9273 26.0334C26.316 25.8252 26.6602 25.9834 26.7573 26.4248C26.8545 26.8634 27.9288 31.3549 28.1009 32.1849C28.187 32.6013 27.7095 32.9428 27.3209 32.6985C26.9294 32.4542 22.6878 29.4978 22.4157 29.2563C22.0243 28.9148 22.2963 28.5595 22.4879 28.3791C22.8765 28.0099 25.5609 26.2305 25.9273 26.0334ZM14.1156 28.4984C13.6242 28.4512 13.4799 28.8898 13.5548 29.2785C13.627 29.6699 14.3598 34.6195 14.4098 34.9887C14.482 35.5244 15.0455 35.7465 15.4092 35.208C15.7728 34.6694 18.2823 30.6554 18.4849 30.2778C18.8514 29.5949 18.5821 29.4478 18.2157 29.2785C17.852 29.1091 14.6291 28.5484 14.1156 28.4984ZM7.08956 22.8132C7.43101 22.2525 7.86961 22.3996 8.18885 22.9354C8.40537 23.3018 10.2375 25.7669 10.4096 26.0334C10.5817 26.3026 10.6539 26.8134 10.1181 26.9356C9.57683 27.0605 5.21023 28.207 4.52734 28.3291C3.84445 28.4512 3.45304 27.9155 3.89164 27.3297C4.14703 26.9855 6.89524 23.1325 7.08956 22.8132ZM6.16239 18.566C6.78698 18.8436 7.08123 18.7437 7.21171 18.2967C7.38382 17.711 7.89459 15.0266 7.91958 14.4159C7.93623 14.019 7.77245 13.6359 7.16174 13.733C6.55102 13.8302 2.15943 14.4437 1.59869 14.638C0.946332 14.8656 0.993524 15.5818 1.42658 15.8095C1.94013 16.0787 5.72101 18.3717 6.16239 18.566ZM13.7519 8.3171C14.1044 8.03673 13.9962 7.63421 13.6797 7.41491C13.3633 7.19561 9.44359 4.36134 8.94669 3.9727C8.50809 3.63126 7.96955 3.7534 8.11667 4.53345C8.22216 5.0942 9.47135 10.0021 9.5574 10.3408C9.65456 10.7322 9.94881 10.9265 10.2903 10.6822C10.6262 10.4407 13.3855 8.61135 13.7519 8.3171Z" fill="#FFA722"/>
</g>
<defs>
<clipPath id="clip0_1462_3352">
<rect width="35.5325" height="35.5325" fill="white" transform="translate(0.363525 0.883057)"/>
</clipPath>
</defs>
</svg>
